<mxfile host="app.diagrams.net" modified="2023-11-11T21:12:28.166Z" agent="Mozilla/5.0 (Windows NT 10.0; Win64; x64) AppleWebKit/537.36 (KHTML, like Gecko) Chrome/119.0.0.0 Safari/537.36" etag="CT4rCK75IqktLtZp1ufy" version="22.1.0" type="github">
  <diagram id="C5RBs43oDa-KdzZeNtuy" name="Page-1">
    <mxGraphModel dx="1434" dy="750" grid="1" gridSize="10" guides="1" tooltips="1" connect="1" arrows="1" fold="1" page="1" pageScale="1" pageWidth="827" pageHeight="1169" math="0" shadow="0">
      <root>
        <mxCell id="WIyWlLk6GJQsqaUBKTNV-0" />
        <mxCell id="WIyWlLk6GJQsqaUBKTNV-1" parent="WIyWlLk6GJQsqaUBKTNV-0" />
        <mxCell id="b1gonqwTvgV6cinlEbsq-3" value="" style="edgeStyle=orthogonalEdgeStyle;rounded=0;orthogonalLoop=1;jettySize=auto;html=1;" edge="1" parent="WIyWlLk6GJQsqaUBKTNV-1" source="WIyWlLk6GJQsqaUBKTNV-3" target="b1gonqwTvgV6cinlEbsq-2">
          <mxGeometry relative="1" as="geometry" />
        </mxCell>
        <mxCell id="WIyWlLk6GJQsqaUBKTNV-3" value="Create root of the tree&lt;br&gt;Perform first reduction - calculate its lowerbound&lt;br&gt;Add it to priority queue" style="rounded=1;whiteSpace=wrap;html=1;fontSize=12;glass=0;strokeWidth=1;shadow=0;" parent="WIyWlLk6GJQsqaUBKTNV-1" vertex="1">
          <mxGeometry x="134" y="130" width="220" height="100" as="geometry" />
        </mxCell>
        <mxCell id="b1gonqwTvgV6cinlEbsq-5" value="" style="edgeStyle=orthogonalEdgeStyle;rounded=0;orthogonalLoop=1;jettySize=auto;html=1;" edge="1" parent="WIyWlLk6GJQsqaUBKTNV-1" source="b1gonqwTvgV6cinlEbsq-2" target="b1gonqwTvgV6cinlEbsq-4">
          <mxGeometry relative="1" as="geometry" />
        </mxCell>
        <mxCell id="b1gonqwTvgV6cinlEbsq-2" value="While priority queue is not empty" style="rounded=1;whiteSpace=wrap;html=1;fontSize=12;glass=0;strokeWidth=1;shadow=0;" vertex="1" parent="WIyWlLk6GJQsqaUBKTNV-1">
          <mxGeometry x="151" y="270" width="186" height="50" as="geometry" />
        </mxCell>
        <mxCell id="b1gonqwTvgV6cinlEbsq-9" style="edgeStyle=orthogonalEdgeStyle;rounded=0;orthogonalLoop=1;jettySize=auto;html=1;exitX=0.5;exitY=1;exitDx=0;exitDy=0;entryX=0.5;entryY=0;entryDx=0;entryDy=0;" edge="1" parent="WIyWlLk6GJQsqaUBKTNV-1" source="b1gonqwTvgV6cinlEbsq-4" target="b1gonqwTvgV6cinlEbsq-8">
          <mxGeometry relative="1" as="geometry" />
        </mxCell>
        <mxCell id="b1gonqwTvgV6cinlEbsq-4" value="Get first node of priority queue and remove it from queue" style="rounded=1;whiteSpace=wrap;html=1;fontSize=12;glass=0;strokeWidth=1;shadow=0;" vertex="1" parent="WIyWlLk6GJQsqaUBKTNV-1">
          <mxGeometry x="384" y="270" width="186" height="50" as="geometry" />
        </mxCell>
        <mxCell id="b1gonqwTvgV6cinlEbsq-12" style="rounded=0;orthogonalLoop=1;jettySize=auto;html=1;exitX=0;exitY=1;exitDx=0;exitDy=0;entryX=1;entryY=0;entryDx=0;entryDy=0;edgeStyle=orthogonalEdgeStyle;" edge="1" parent="WIyWlLk6GJQsqaUBKTNV-1" source="b1gonqwTvgV6cinlEbsq-8" target="b1gonqwTvgV6cinlEbsq-13">
          <mxGeometry relative="1" as="geometry">
            <mxPoint x="554" y="480" as="targetPoint" />
          </mxGeometry>
        </mxCell>
        <mxCell id="b1gonqwTvgV6cinlEbsq-44" style="edgeStyle=orthogonalEdgeStyle;rounded=0;orthogonalLoop=1;jettySize=auto;html=1;exitX=1;exitY=1;exitDx=0;exitDy=0;entryX=0.5;entryY=0;entryDx=0;entryDy=0;" edge="1" parent="WIyWlLk6GJQsqaUBKTNV-1" source="b1gonqwTvgV6cinlEbsq-8" target="b1gonqwTvgV6cinlEbsq-20">
          <mxGeometry relative="1" as="geometry" />
        </mxCell>
        <mxCell id="b1gonqwTvgV6cinlEbsq-8" value="if node is feasible solution" style="rhombus;whiteSpace=wrap;html=1;" vertex="1" parent="WIyWlLk6GJQsqaUBKTNV-1">
          <mxGeometry x="401" y="350" width="126" height="110" as="geometry" />
        </mxCell>
        <mxCell id="b1gonqwTvgV6cinlEbsq-17" value="" style="rounded=0;orthogonalLoop=1;jettySize=auto;html=1;entryX=0.5;entryY=0;entryDx=0;entryDy=0;exitX=0.5;exitY=1;exitDx=0;exitDy=0;" edge="1" parent="WIyWlLk6GJQsqaUBKTNV-1" source="b1gonqwTvgV6cinlEbsq-13" target="b1gonqwTvgV6cinlEbsq-16">
          <mxGeometry relative="1" as="geometry" />
        </mxCell>
        <mxCell id="b1gonqwTvgV6cinlEbsq-43" style="rounded=0;orthogonalLoop=1;jettySize=auto;html=1;exitX=0;exitY=0.5;exitDx=0;exitDy=0;entryX=1;entryY=0.5;entryDx=0;entryDy=0;" edge="1" parent="WIyWlLk6GJQsqaUBKTNV-1" source="b1gonqwTvgV6cinlEbsq-13" target="b1gonqwTvgV6cinlEbsq-32">
          <mxGeometry relative="1" as="geometry" />
        </mxCell>
        <mxCell id="b1gonqwTvgV6cinlEbsq-13" value="&lt;br&gt;if lower bound is&amp;nbsp;&lt;br&gt;less than upper bound" style="rhombus;whiteSpace=wrap;html=1;" vertex="1" parent="WIyWlLk6GJQsqaUBKTNV-1">
          <mxGeometry x="274" y="440" width="120" height="110" as="geometry" />
        </mxCell>
        <mxCell id="b1gonqwTvgV6cinlEbsq-14" value="yes" style="text;html=1;align=center;verticalAlign=middle;resizable=0;points=[];autosize=1;strokeColor=none;fillColor=none;" vertex="1" parent="WIyWlLk6GJQsqaUBKTNV-1">
          <mxGeometry x="380" y="430" width="40" height="30" as="geometry" />
        </mxCell>
        <mxCell id="b1gonqwTvgV6cinlEbsq-50" style="edgeStyle=orthogonalEdgeStyle;rounded=0;orthogonalLoop=1;jettySize=auto;html=1;exitX=0;exitY=0.5;exitDx=0;exitDy=0;entryX=1;entryY=1;entryDx=0;entryDy=0;" edge="1" parent="WIyWlLk6GJQsqaUBKTNV-1" source="b1gonqwTvgV6cinlEbsq-16" target="b1gonqwTvgV6cinlEbsq-32">
          <mxGeometry relative="1" as="geometry">
            <mxPoint x="140" y="640" as="targetPoint" />
          </mxGeometry>
        </mxCell>
        <mxCell id="b1gonqwTvgV6cinlEbsq-16" value="update best solution&lt;br&gt;update upper bound" style="rounded=1;whiteSpace=wrap;html=1;" vertex="1" parent="WIyWlLk6GJQsqaUBKTNV-1">
          <mxGeometry x="274" y="610" width="120" height="60" as="geometry" />
        </mxCell>
        <mxCell id="b1gonqwTvgV6cinlEbsq-18" value="no" style="text;html=1;align=center;verticalAlign=middle;resizable=0;points=[];autosize=1;strokeColor=none;fillColor=none;" vertex="1" parent="WIyWlLk6GJQsqaUBKTNV-1">
          <mxGeometry x="492" y="440" width="40" height="30" as="geometry" />
        </mxCell>
        <mxCell id="b1gonqwTvgV6cinlEbsq-22" value="" style="edgeStyle=orthogonalEdgeStyle;rounded=0;orthogonalLoop=1;jettySize=auto;html=1;" edge="1" parent="WIyWlLk6GJQsqaUBKTNV-1" source="b1gonqwTvgV6cinlEbsq-20" target="b1gonqwTvgV6cinlEbsq-21">
          <mxGeometry relative="1" as="geometry" />
        </mxCell>
        <mxCell id="b1gonqwTvgV6cinlEbsq-20" value="for each unvisited cities adjacent to city of current node" style="rounded=1;whiteSpace=wrap;html=1;" vertex="1" parent="WIyWlLk6GJQsqaUBKTNV-1">
          <mxGeometry x="487" y="520" width="160" height="90" as="geometry" />
        </mxCell>
        <mxCell id="b1gonqwTvgV6cinlEbsq-26" style="edgeStyle=orthogonalEdgeStyle;rounded=0;orthogonalLoop=1;jettySize=auto;html=1;exitX=0.5;exitY=1;exitDx=0;exitDy=0;entryX=0.5;entryY=0;entryDx=0;entryDy=0;" edge="1" parent="WIyWlLk6GJQsqaUBKTNV-1" source="b1gonqwTvgV6cinlEbsq-21" target="b1gonqwTvgV6cinlEbsq-25">
          <mxGeometry relative="1" as="geometry" />
        </mxCell>
        <mxCell id="b1gonqwTvgV6cinlEbsq-21" value="create new node&amp;nbsp;&lt;br&gt;perform reduction of matrix and calculate lowerbound" style="rounded=1;whiteSpace=wrap;html=1;" vertex="1" parent="WIyWlLk6GJQsqaUBKTNV-1">
          <mxGeometry x="487" y="640" width="160" height="80" as="geometry" />
        </mxCell>
        <mxCell id="b1gonqwTvgV6cinlEbsq-28" value="" style="rounded=0;orthogonalLoop=1;jettySize=auto;html=1;entryX=0;entryY=0.5;entryDx=0;entryDy=0;exitX=1;exitY=0.5;exitDx=0;exitDy=0;edgeStyle=orthogonalEdgeStyle;" edge="1" parent="WIyWlLk6GJQsqaUBKTNV-1" source="b1gonqwTvgV6cinlEbsq-25">
          <mxGeometry relative="1" as="geometry">
            <mxPoint x="691" y="805" as="targetPoint" />
          </mxGeometry>
        </mxCell>
        <mxCell id="b1gonqwTvgV6cinlEbsq-33" style="rounded=0;orthogonalLoop=1;jettySize=auto;html=1;entryX=0.5;entryY=1;entryDx=0;entryDy=0;exitX=0;exitY=0.5;exitDx=0;exitDy=0;edgeStyle=orthogonalEdgeStyle;" edge="1" parent="WIyWlLk6GJQsqaUBKTNV-1" source="b1gonqwTvgV6cinlEbsq-25" target="b1gonqwTvgV6cinlEbsq-32">
          <mxGeometry relative="1" as="geometry" />
        </mxCell>
        <mxCell id="b1gonqwTvgV6cinlEbsq-25" value="if lowerbound &lt;br&gt;is lower &lt;br&gt;than upperbound" style="rhombus;whiteSpace=wrap;html=1;" vertex="1" parent="WIyWlLk6GJQsqaUBKTNV-1">
          <mxGeometry x="492" y="750" width="150" height="110" as="geometry" />
        </mxCell>
        <mxCell id="b1gonqwTvgV6cinlEbsq-27" value="add new node to priority queue" style="whiteSpace=wrap;html=1;" vertex="1" parent="WIyWlLk6GJQsqaUBKTNV-1">
          <mxGeometry x="690" y="775" width="120" height="60" as="geometry" />
        </mxCell>
        <mxCell id="b1gonqwTvgV6cinlEbsq-30" value="yes" style="text;html=1;align=center;verticalAlign=middle;resizable=0;points=[];autosize=1;strokeColor=none;fillColor=none;" vertex="1" parent="WIyWlLk6GJQsqaUBKTNV-1">
          <mxGeometry x="642" y="780" width="40" height="30" as="geometry" />
        </mxCell>
        <mxCell id="b1gonqwTvgV6cinlEbsq-34" style="rounded=0;orthogonalLoop=1;jettySize=auto;html=1;exitX=0;exitY=0;exitDx=0;exitDy=0;entryX=0;entryY=0.5;entryDx=0;entryDy=0;edgeStyle=orthogonalEdgeStyle;" edge="1" parent="WIyWlLk6GJQsqaUBKTNV-1" source="b1gonqwTvgV6cinlEbsq-32" target="b1gonqwTvgV6cinlEbsq-2">
          <mxGeometry relative="1" as="geometry">
            <mxPoint x="84" y="290" as="targetPoint" />
            <Array as="points">
              <mxPoint x="97" y="295" />
            </Array>
          </mxGeometry>
        </mxCell>
        <mxCell id="b1gonqwTvgV6cinlEbsq-39" value="" style="rounded=0;orthogonalLoop=1;jettySize=auto;html=1;exitX=1;exitY=0;exitDx=0;exitDy=0;" edge="1" parent="WIyWlLk6GJQsqaUBKTNV-1" source="b1gonqwTvgV6cinlEbsq-32" target="b1gonqwTvgV6cinlEbsq-38">
          <mxGeometry relative="1" as="geometry" />
        </mxCell>
        <mxCell id="b1gonqwTvgV6cinlEbsq-32" value="if priority&lt;br&gt;queue empty&amp;nbsp;" style="rhombus;whiteSpace=wrap;html=1;" vertex="1" parent="WIyWlLk6GJQsqaUBKTNV-1">
          <mxGeometry x="74" y="450" width="130" height="90" as="geometry" />
        </mxCell>
        <mxCell id="b1gonqwTvgV6cinlEbsq-35" value="no" style="text;html=1;align=center;verticalAlign=middle;resizable=0;points=[];autosize=1;strokeColor=none;fillColor=none;" vertex="1" parent="WIyWlLk6GJQsqaUBKTNV-1">
          <mxGeometry x="64" y="400" width="40" height="30" as="geometry" />
        </mxCell>
        <mxCell id="b1gonqwTvgV6cinlEbsq-37" value="no" style="text;html=1;align=center;verticalAlign=middle;resizable=0;points=[];autosize=1;strokeColor=none;fillColor=none;" vertex="1" parent="WIyWlLk6GJQsqaUBKTNV-1">
          <mxGeometry x="447" y="780" width="40" height="30" as="geometry" />
        </mxCell>
        <mxCell id="b1gonqwTvgV6cinlEbsq-38" value="STOP" style="ellipse;whiteSpace=wrap;html=1;" vertex="1" parent="WIyWlLk6GJQsqaUBKTNV-1">
          <mxGeometry x="194" y="400" width="60" height="60" as="geometry" />
        </mxCell>
        <mxCell id="b1gonqwTvgV6cinlEbsq-40" value="yes" style="text;html=1;align=center;verticalAlign=middle;resizable=0;points=[];autosize=1;strokeColor=none;fillColor=none;" vertex="1" parent="WIyWlLk6GJQsqaUBKTNV-1">
          <mxGeometry x="154" y="430" width="40" height="30" as="geometry" />
        </mxCell>
        <mxCell id="b1gonqwTvgV6cinlEbsq-42" style="edgeStyle=orthogonalEdgeStyle;rounded=0;orthogonalLoop=1;jettySize=auto;html=1;exitX=0.5;exitY=1;exitDx=0;exitDy=0;entryX=0.5;entryY=0;entryDx=0;entryDy=0;" edge="1" parent="WIyWlLk6GJQsqaUBKTNV-1" source="b1gonqwTvgV6cinlEbsq-41" target="WIyWlLk6GJQsqaUBKTNV-3">
          <mxGeometry relative="1" as="geometry" />
        </mxCell>
        <mxCell id="b1gonqwTvgV6cinlEbsq-41" value="START" style="ellipse;whiteSpace=wrap;html=1;aspect=fixed;" vertex="1" parent="WIyWlLk6GJQsqaUBKTNV-1">
          <mxGeometry x="204" y="10" width="80" height="80" as="geometry" />
        </mxCell>
        <mxCell id="b1gonqwTvgV6cinlEbsq-48" value="yes" style="text;html=1;align=center;verticalAlign=middle;resizable=0;points=[];autosize=1;strokeColor=none;fillColor=none;" vertex="1" parent="WIyWlLk6GJQsqaUBKTNV-1">
          <mxGeometry x="330" y="550" width="40" height="30" as="geometry" />
        </mxCell>
        <mxCell id="b1gonqwTvgV6cinlEbsq-49" value="no" style="text;html=1;align=center;verticalAlign=middle;resizable=0;points=[];autosize=1;strokeColor=none;fillColor=none;" vertex="1" parent="WIyWlLk6GJQsqaUBKTNV-1">
          <mxGeometry x="220" y="470" width="40" height="30" as="geometry" />
        </mxCell>
      </root>
    </mxGraphModel>
  </diagram>
</mxfile>
